<svg xmlns="http://www.w3.org/2000/svg" xmlns:xlink="http://www.w3.org/1999/xlink" width="1000" zoomAndPan="magnify" viewBox="0 0 750 225" height="300" preserveAspectRatio="xMidYMid meet" version="1.0"><defs><g/><clipPath id="f7ac4b9ca8"><path d="M 0 0 L 273.75 0 L 273.75 223 L 0 223 Z M 0 0 " clip-rule="nonzero"/></clipPath></defs><g clip-path="url(#f7ac4b9ca8)"><path fill="#545454" d="M 0.644531 112.730469 C 16.382812 64.867188 78.851562 83.160156 93.789062 136.695312 C 93.789062 136.695312 158.59375 12.835938 273.339844 0.0117188 C 236.8125 30.574219 180.785156 86.558594 153.769531 126.566406 C 123.078125 172.015625 94.636719 225.0625 78.941406 222.085938 C 66.453125 219.726562 54.308594 145.472656 0.644531 112.742188 Z M 0.644531 112.730469 " fill-opacity="1" fill-rule="evenodd"/></g><g fill="#545454" fill-opacity="1"><g transform="translate(136.986294, 222.506103)"><g><path d="M 64.59375 1.84375 C 43.476562 1.84375 27.941406 -2.5 17.984375 -11.1875 C 9.171875 -18.894531 4.765625 -29.394531 4.765625 -42.6875 C 4.765625 -55.945312 9.171875 -66.425781 17.984375 -74.125 C 27.941406 -82.820312 43.476562 -87.171875 64.59375 -87.171875 C 85.71875 -87.171875 101.257812 -82.820312 111.21875 -74.125 C 120.03125 -66.425781 124.4375 -55.945312 124.4375 -42.6875 C 124.4375 -29.394531 120.03125 -18.894531 111.21875 -11.1875 C 101.257812 -2.5 85.71875 1.84375 64.59375 1.84375 Z M 64.59375 -21.078125 C 73.25 -21.078125 79.601562 -23.554688 83.65625 -28.515625 C 86.90625 -32.523438 88.53125 -37.25 88.53125 -42.6875 C 88.53125 -48.125 86.90625 -52.828125 83.65625 -56.796875 C 79.601562 -61.796875 73.25 -64.296875 64.59375 -64.296875 C 55.945312 -64.296875 49.578125 -61.796875 45.484375 -56.796875 C 42.234375 -52.828125 40.609375 -48.125 40.609375 -42.6875 C 40.609375 -37.25 42.234375 -32.523438 45.484375 -28.515625 C 49.578125 -23.554688 55.945312 -21.078125 64.59375 -21.078125 Z M 64.59375 -21.078125 "/></g></g></g><g fill="#545454" fill-opacity="1"><g transform="translate(266.185579, 222.506103)"><g><path d="M 72.875 0 L 37.03125 0 L 37.03125 -64.296875 L 3.578125 -64.296875 L 3.578125 -85.4375 L 106.34375 -85.4375 L 106.34375 -64.296875 L 72.875 -64.296875 Z M 72.875 0 "/></g></g></g><g fill="#545454" fill-opacity="1"><g transform="translate(376.094279, 222.506103)"><g><path d="M 112.40625 0 L 9.53125 0 L 9.53125 -85.4375 L 107.703125 -85.4375 L 107.703125 -64.296875 L 45.375 -64.296875 L 45.375 -50.90625 L 98.0625 -50.90625 L 98.0625 -34.46875 L 45.375 -34.46875 L 45.375 -21.140625 L 112.40625 -21.140625 Z M 112.40625 0 "/></g></g></g><g fill="#545454" fill-opacity="1"><g transform="translate(493.266717, 222.506103)"><g><path d="M 126.171875 0 L 92.28125 0 C 90.738281 -2.144531 89.648438 -4.882812 89.015625 -8.21875 C 88.453125 -10.800781 87.613281 -13.332031 86.5 -15.8125 C 85.394531 -18.289062 83.484375 -20.351562 80.765625 -22 C 78.046875 -23.644531 74.007812 -24.53125 68.65625 -24.65625 L 45.375 -24.65625 L 45.375 0 L 9.53125 0 L 9.53125 -85.4375 L 67.8125 -85.4375 C 81.75 -85.4375 92.992188 -84.394531 101.546875 -82.3125 C 110.097656 -80.226562 116.335938 -76.953125 120.265625 -72.484375 C 124.203125 -68.023438 126.171875 -62.203125 126.171875 -55.015625 C 126.171875 -49.023438 124.8125 -43.984375 122.09375 -39.890625 C 119.375 -35.804688 115.078125 -32.570312 109.203125 -30.1875 C 114.867188 -27.84375 118.546875 -25.03125 120.234375 -21.75 C 121.921875 -18.476562 122.960938 -14.878906 123.359375 -10.953125 C 123.765625 -7.460938 124.703125 -3.8125 126.171875 0 Z M 45.375 -45.734375 L 65.84375 -45.78125 C 71.5625 -45.78125 76.066406 -46.035156 79.359375 -46.546875 C 82.660156 -47.066406 85.09375 -47.773438 86.65625 -48.671875 C 88.226562 -49.566406 89.234375 -50.554688 89.671875 -51.640625 C 90.109375 -52.734375 90.328125 -53.859375 90.328125 -55.015625 C 90.328125 -56.160156 90.109375 -57.289062 89.671875 -58.40625 C 89.234375 -59.519531 88.226562 -60.519531 86.65625 -61.40625 C 85.09375 -62.300781 82.660156 -63.003906 79.359375 -63.515625 C 76.066406 -64.035156 71.5625 -64.296875 65.84375 -64.296875 L 45.375 -64.296875 Z M 45.375 -45.734375 "/></g></g></g><g fill="#545454" fill-opacity="1"><g transform="translate(624.19264, 222.506103)"><g><path d="M 126.171875 0 L 92.28125 0 C 90.738281 -2.144531 89.648438 -4.882812 89.015625 -8.21875 C 88.453125 -10.800781 87.613281 -13.332031 86.5 -15.8125 C 85.394531 -18.289062 83.484375 -20.351562 80.765625 -22 C 78.046875 -23.644531 74.007812 -24.53125 68.65625 -24.65625 L 45.375 -24.65625 L 45.375 0 L 9.53125 0 L 9.53125 -85.4375 L 67.8125 -85.4375 C 81.75 -85.4375 92.992188 -84.394531 101.546875 -82.3125 C 110.097656 -80.226562 116.335938 -76.953125 120.265625 -72.484375 C 124.203125 -68.023438 126.171875 -62.203125 126.171875 -55.015625 C 126.171875 -49.023438 124.8125 -43.984375 122.09375 -39.890625 C 119.375 -35.804688 115.078125 -32.570312 109.203125 -30.1875 C 114.867188 -27.84375 118.546875 -25.03125 120.234375 -21.75 C 121.921875 -18.476562 122.960938 -14.878906 123.359375 -10.953125 C 123.765625 -7.460938 124.703125 -3.8125 126.171875 0 Z M 45.375 -45.734375 L 65.84375 -45.78125 C 71.5625 -45.78125 76.066406 -46.035156 79.359375 -46.546875 C 82.660156 -47.066406 85.09375 -47.773438 86.65625 -48.671875 C 88.226562 -49.566406 89.234375 -50.554688 89.671875 -51.640625 C 90.109375 -52.734375 90.328125 -53.859375 90.328125 -55.015625 C 90.328125 -56.160156 90.109375 -57.289062 89.671875 -58.40625 C 89.234375 -59.519531 88.226562 -60.519531 86.65625 -61.40625 C 85.09375 -62.300781 82.660156 -63.003906 79.359375 -63.515625 C 76.066406 -64.035156 71.5625 -64.296875 65.84375 -64.296875 L 45.375 -64.296875 Z M 45.375 -45.734375 "/></g></g></g></svg>