<svg xmlns="http://www.w3.org/2000/svg" xmlns:xlink="http://www.w3.org/1999/xlink" width="1000" zoomAndPan="magnify" viewBox="0 0 750 225" height="300" preserveAspectRatio="xMidYMid meet" version="1.0"><defs><g/><clipPath id="fc74b33877"><path d="M 0 0 L 273.75 0 L 273.75 223 L 0 223 Z M 0 0 " clip-rule="nonzero"/></clipPath></defs><g clip-path="url(#fc74b33877)"><path fill="#ffffff" d="M 0.644531 112.730469 C 16.382812 64.867188 78.851562 83.160156 93.789062 136.695312 C 93.789062 136.695312 158.59375 12.835938 273.339844 0.0117188 C 236.8125 30.574219 180.785156 86.558594 153.769531 126.566406 C 123.078125 172.015625 94.636719 225.0625 78.941406 222.085938 C 66.453125 219.726562 54.308594 145.472656 0.644531 112.742188 Z M 0.644531 112.730469 " fill-opacity="1" fill-rule="evenodd"/></g><g fill="#ffffff" fill-opacity="1"><g transform="translate(136.973373, 223.304693)"><g><path d="M 64.609375 1.84375 C 43.492188 1.84375 27.953125 -2.5 17.984375 -11.1875 C 9.171875 -18.894531 4.765625 -29.398438 4.765625 -42.703125 C 4.765625 -55.953125 9.171875 -66.429688 17.984375 -74.140625 C 27.953125 -82.828125 43.492188 -87.171875 64.609375 -87.171875 C 85.722656 -87.171875 101.265625 -82.828125 111.234375 -74.140625 C 120.046875 -66.429688 124.453125 -55.953125 124.453125 -42.703125 C 124.453125 -29.398438 120.046875 -18.894531 111.234375 -11.1875 C 101.265625 -2.5 85.722656 1.84375 64.609375 1.84375 Z M 64.609375 -21.078125 C 73.265625 -21.078125 79.617188 -23.554688 83.671875 -28.515625 C 86.921875 -32.523438 88.546875 -37.253906 88.546875 -42.703125 C 88.546875 -48.140625 86.921875 -52.84375 83.671875 -56.8125 C 79.617188 -61.8125 73.265625 -64.3125 64.609375 -64.3125 C 55.953125 -64.3125 49.582031 -61.8125 45.5 -56.8125 C 42.238281 -52.84375 40.609375 -48.140625 40.609375 -42.703125 C 40.609375 -37.253906 42.238281 -32.523438 45.5 -28.515625 C 49.582031 -23.554688 55.953125 -21.078125 64.609375 -21.078125 Z M 64.609375 -21.078125 "/></g></g></g><g fill="#ffffff" fill-opacity="1"><g transform="translate(266.183, 223.304693)"><g><path d="M 72.890625 0 L 37.03125 0 L 37.03125 -64.3125 L 3.578125 -64.3125 L 3.578125 -85.453125 L 106.359375 -85.453125 L 106.359375 -64.3125 L 72.890625 -64.3125 Z M 72.890625 0 "/></g></g></g><g fill="#ffffff" fill-opacity="1"><g transform="translate(376.100498, 223.304693)"><g><path d="M 112.421875 0 L 9.53125 0 L 9.53125 -85.453125 L 107.71875 -85.453125 L 107.71875 -64.3125 L 45.375 -64.3125 L 45.375 -50.90625 L 98.078125 -50.90625 L 98.078125 -34.484375 L 45.375 -34.484375 L 45.375 -21.140625 L 112.421875 -21.140625 Z M 112.421875 0 "/></g></g></g><g fill="#ffffff" fill-opacity="1"><g transform="translate(493.282318, 223.304693)"><g><path d="M 126.1875 0 L 92.296875 0 C 90.742188 -2.144531 89.648438 -4.882812 89.015625 -8.21875 C 88.460938 -10.800781 87.628906 -13.332031 86.515625 -15.8125 C 85.410156 -18.289062 83.5 -20.351562 80.78125 -22 C 78.0625 -23.644531 74.019531 -24.53125 68.65625 -24.65625 L 45.375 -24.65625 L 45.375 0 L 9.53125 0 L 9.53125 -85.453125 L 67.828125 -85.453125 C 81.753906 -85.453125 92.992188 -84.410156 101.546875 -82.328125 C 110.109375 -80.242188 116.351562 -76.96875 120.28125 -72.5 C 124.21875 -68.03125 126.1875 -62.203125 126.1875 -55.015625 C 126.1875 -49.023438 124.820312 -43.984375 122.09375 -39.890625 C 119.375 -35.804688 115.078125 -32.570312 109.203125 -30.1875 C 114.878906 -27.84375 118.5625 -25.035156 120.25 -21.765625 C 121.9375 -18.492188 122.976562 -14.890625 123.375 -10.953125 C 123.78125 -7.460938 124.71875 -3.8125 126.1875 0 Z M 45.375 -45.734375 L 65.859375 -45.796875 C 71.578125 -45.796875 76.082031 -46.050781 79.375 -46.5625 C 82.664062 -47.082031 85.09375 -47.785156 86.65625 -48.671875 C 88.226562 -49.566406 89.234375 -50.5625 89.671875 -51.65625 C 90.109375 -52.75 90.328125 -53.867188 90.328125 -55.015625 C 90.328125 -56.171875 90.109375 -57.300781 89.671875 -58.40625 C 89.234375 -59.519531 88.226562 -60.523438 86.65625 -61.421875 C 85.09375 -62.316406 82.664062 -63.019531 79.375 -63.53125 C 76.082031 -64.050781 71.578125 -64.3125 65.859375 -64.3125 L 45.375 -64.3125 Z M 45.375 -45.734375 "/></g></g></g><g fill="#ffffff" fill-opacity="1"><g transform="translate(624.2187, 223.304693)"><g><path d="M 126.1875 0 L 92.296875 0 C 90.742188 -2.144531 89.648438 -4.882812 89.015625 -8.21875 C 88.460938 -10.800781 87.628906 -13.332031 86.515625 -15.8125 C 85.410156 -18.289062 83.5 -20.351562 80.78125 -22 C 78.0625 -23.644531 74.019531 -24.53125 68.65625 -24.65625 L 45.375 -24.65625 L 45.375 0 L 9.53125 0 L 9.53125 -85.453125 L 67.828125 -85.453125 C 81.753906 -85.453125 92.992188 -84.410156 101.546875 -82.328125 C 110.109375 -80.242188 116.351562 -76.96875 120.28125 -72.5 C 124.21875 -68.03125 126.1875 -62.203125 126.1875 -55.015625 C 126.1875 -49.023438 124.820312 -43.984375 122.09375 -39.890625 C 119.375 -35.804688 115.078125 -32.570312 109.203125 -30.1875 C 114.878906 -27.84375 118.5625 -25.035156 120.25 -21.765625 C 121.9375 -18.492188 122.976562 -14.890625 123.375 -10.953125 C 123.78125 -7.460938 124.71875 -3.8125 126.1875 0 Z M 45.375 -45.734375 L 65.859375 -45.796875 C 71.578125 -45.796875 76.082031 -46.050781 79.375 -46.5625 C 82.664062 -47.082031 85.09375 -47.785156 86.65625 -48.671875 C 88.226562 -49.566406 89.234375 -50.5625 89.671875 -51.65625 C 90.109375 -52.75 90.328125 -53.867188 90.328125 -55.015625 C 90.328125 -56.171875 90.109375 -57.300781 89.671875 -58.40625 C 89.234375 -59.519531 88.226562 -60.523438 86.65625 -61.421875 C 85.09375 -62.316406 82.664062 -63.019531 79.375 -63.53125 C 76.082031 -64.050781 71.578125 -64.3125 65.859375 -64.3125 L 45.375 -64.3125 Z M 45.375 -45.734375 "/></g></g></g></svg>